<svg xmlns="http://www.w3.org/2000/svg" xmlns:xlink="http://www.w3.org/1999/xlink" id="Layer_2" data-name="Layer 2" viewBox="0 0 586.69 194.18" width="64" height="64">
  <g xmlns="http://www.w3.org/2000/svg" class="cls-2" fill="red">
    <path class="cls-4" d="M13.71,114.62c6.76-6.51,23.89-10.84,30.41-9.22,4.05-8.82,17.49-14.93,29.51-10.37,14.99,5.7,27.14,14.89,31.09,18.07,1.71-4.15,3.34-8.05,4.44-10.62,.89-2.07,2.08-3.68,3.39-4.95-14.84-7.46-42.45-16.35-63.81-6.28,10.87-8,33.4-9.47,48.86-3.03-5.84-6.65-21.02-14.6-34.34-15.07,0,0,8.38,3.64,6.89,5.67-2.49,3.4-17.55-5.33-28.9,.11,0,0,10.19-.38,9.88,3.19-.25,2.79-8.03,1.01-17.43,6.02-11.41,6.07-17.97,18.63-19.99,26.49"/>
    <g class="cls-5">
      <polyline class="cls-4" points="29.27 96.5 19.76 119.52 11.69 123.55 11.69 128.38 60.76 128.38 60.76 123.55 54.46 119.68 55.4 116.87 63.69 91.03 63.66 91.02"/>
    </g>
    <g class="cls-8">
      <polyline class="cls-4" points="49.42 47.72 29.27 96.5 63.66 91.02 65.98 83.86 65.98 83.85 65.98 83.85 74.18 58.56"/>
    </g>
    <g class="cls-7">
      <polyline class="cls-4" points="94.89 90.56 105.2 116.63 105.2 116.63 106.43 119.68 98.85 123.55 98.85 128.38 148.72 128.38 148.72 123.55 141.14 119.84 128.37 88.62"/>
      <g class="cls-6">
        <polyline class="cls-3" points="128.37 88.62 98.53 15.66 51.07 15.66 51.07 20.17 59.14 24.2 49.42 47.72 74.18 58.56 77.7 47.71 78.03 47.71 93.36 86.68 93.36 86.68 94.89 90.56"/>
      </g>
      <polyline class="cls-4" points="128.79 89.64 98.53 15.66 51.07 15.66 51.07 20.17 59.14 24.2 49.04 48.64 73.8 59.47 77.7 47.71 78.03 47.71 93.36 86.68 93.36 86.68 94.89 90.56"/>
    </g>
  </g>
<script xmlns=""/></svg>