<svg xmlns="http://www.w3.org/2000/svg" width="140" height="140" data-name="Layer 2">
  <g>
   <g xmlns="http://www.w3.org/2000/svg" id="svg_1" class="cls-2">
    <path id="svg_2" d="m3.505,112.6c6.76,-6.51 23.89,-10.84 30.41,-9.22c4.05,-8.82 17.49,-14.93 29.51,-10.37c14.99,5.7 27.14,14.89 31.09,18.07c1.71,-4.15 3.34,-8.05 4.44,-10.62c0.89,-2.07 2.08,-3.68 3.39,-4.95c-14.84,-7.46 -42.45,-16.35 -63.81,-6.28c10.87,-8 33.4,-9.47 48.86,-3.03c-5.84,-6.65 -21.02,-14.6 -34.34,-15.07c0,0 8.38,3.64 6.89,5.67c-2.49,3.4 -17.55,-5.33 -28.9,0.11c0,0 10.19,-0.38 9.88,3.19c-0.25,2.79 -8.03,1.01 -17.43,6.02c-11.41,6.07 -17.97,18.63 -19.99,26.49" class="cls-4"/>
    <g id="svg_3" class="cls-5">
     <polyline id="svg_4" points="19.065000534057617,94.4800033569336 9.555000305175781,117.5 1.4850006103515625,121.52999877929688 1.4850006103515625,126.36000061035156 50.55500030517578,126.36000061035156 50.55500030517578,121.52999877929688 44.25499725341797,117.66000366210938 45.195003509521484,114.85000610351562 53.48500061035156,89.01000213623047 53.45500183105469,89 " class="cls-4"/>
    </g>
    <g id="svg_5" class="cls-8">
     <polyline id="svg_6" points="39.214996337890625,45.70000076293945 19.065000534057617,94.4800033569336 53.45500183105469,89 55.775001525878906,81.84000396728516 55.775001525878906,81.82999420166016 55.775001525878906,81.82999420166016 63.974998474121094,56.540000915527344 " class="cls-4"/>
    </g>
    <g id="svg_7" class="cls-7">
     <polyline id="svg_8" points="84.68499755859375,88.53999328613281 94.9949951171875,114.61000061035156 94.9949951171875,114.61000061035156 96.2249984741211,117.66000366210938 88.6449966430664,121.52999877929688 88.6449966430664,126.36000061035156 138.51499938964844,126.36000061035156 138.51499938964844,121.52999877929688 130.93499755859375,117.81999206542969 118.16499328613281,86.60000610351562 " class="cls-4"/>
     <g id="svg_9" class="cls-6">
      <polyline id="svg_10" points="118.16499328613281,86.60000610351562 88.32499694824219,13.639999389648438 40.86499786376953,13.639999389648438 40.86499786376953,18.149999618530273 48.93499755859375,22.18000030517578 39.214996337890625,45.70000076293945 63.974998474121094,56.540000915527344 67.4949951171875,45.689998626708984 67.82499694824219,45.689998626708984 83.15499877929688,84.66000366210938 83.15499877929688,84.66000366210938 84.68499755859375,88.53999328613281 " class="cls-3"/>
     </g>
     <polyline id="svg_11" points="118.58499145507812,87.6199951171875 88.32499694824219,13.639999389648438 40.86499786376953,13.639999389648438 40.86499786376953,18.149999618530273 48.93499755859375,22.18000030517578 38.834999084472656,46.619998931884766 63.595001220703125,57.45000457763672 67.4949951171875,45.689998626708984 67.82499694824219,45.689998626708984 83.15499877929688,84.66000366210938 83.15499877929688,84.66000366210938 84.68499755859375,88.53999328613281 " class="cls-4"/>
    </g>
   </g>
  </g>
 </svg>